<svg width="44" height="44" viewBox="0 0 44 44" fill="none" xmlns="http://www.w3.org/2000/svg">
<path fill-rule="evenodd" clip-rule="evenodd" d="M31.3333 8.24935C31.3333 7.14478 30.4379 6.24935 29.3333 6.24935C28.2288 6.24935 27.3333 7.14478 27.3333 8.24935V9.16602H16.6667V8.24935C16.6667 7.14478 15.7712 6.24935 14.6667 6.24935C13.5621 6.24935 12.6667 7.14478 12.6667 8.24935V9.16602H11.1667C8.03705 9.16602 5.5 11.7031 5.5 14.8327V17.5321C5.3928 17.7772 5.33333 18.048 5.33333 18.3327C5.33333 18.6173 5.3928 18.8881 5.5 19.1333V32.8327C5.5 35.9623 8.03705 38.4994 11.1667 38.4994H32.8333C35.9629 38.4994 38.5 35.9623 38.5 32.8327V19.1332C38.6072 18.8881 38.6667 18.6173 38.6667 18.3327C38.6667 18.048 38.6072 17.7773 38.5 17.5321V14.8327C38.5 11.7031 35.9629 9.16602 32.8333 9.16602H31.3333V8.24935ZM12.6667 13.7493V13.166H11.1667C10.2462 13.166 9.5 13.9122 9.5 14.8327V16.3327H34.5V14.8327C34.5 13.9122 33.7538 13.166 32.8333 13.166H31.3333V13.7493C31.3333 14.8539 30.4379 15.7493 29.3333 15.7493C28.2288 15.7493 27.3333 14.8539 27.3333 13.7493V13.166H16.6667V13.7493C16.6667 14.8539 15.7712 15.7493 14.6667 15.7493C13.5621 15.7493 12.6667 14.8539 12.6667 13.7493ZM34.5 32.8327V20.3327H9.5V32.8327C9.5 33.7532 10.2462 34.4994 11.1667 34.4994H32.8333C33.7538 34.4994 34.5 33.7532 34.5 32.8327ZM21.0816 25.6664C21.0816 26.679 20.2608 27.4998 19.2483 27.4998C18.2358 27.4998 17.415 26.679 17.415 25.6664C17.415 24.6539 18.2358 23.8331 19.2483 23.8331C20.2608 23.8331 21.0816 24.6539 21.0816 25.6664ZM26.5816 25.6664C26.5816 26.679 25.7608 27.4998 24.7483 27.4998C23.7358 27.4998 22.915 26.679 22.915 25.6664C22.915 24.6539 23.7358 23.8331 24.7483 23.8331C25.7608 23.8331 26.5816 24.6539 26.5816 25.6664ZM30.2483 27.4998C31.2608 27.4998 32.0816 26.679 32.0816 25.6664C32.0816 24.6539 31.2608 23.8331 30.2483 23.8331C29.2358 23.8331 28.415 24.6539 28.415 25.6664C28.415 26.679 29.2358 27.4998 30.2483 27.4998ZM15.5816 31.1664C15.5816 32.179 14.7608 32.9998 13.7483 32.9998C12.7358 32.9998 11.915 32.179 11.915 31.1664C11.915 30.1539 12.7358 29.3331 13.7483 29.3331C14.7608 29.3331 15.5816 30.1539 15.5816 31.1664ZM21.0816 31.1664C21.0816 32.179 20.2608 32.9998 19.2483 32.9998C18.2358 32.9998 17.415 32.179 17.415 31.1664C17.415 30.1539 18.2358 29.3331 19.2483 29.3331C20.2608 29.3331 21.0816 30.1539 21.0816 31.1664ZM24.7483 32.9998C25.7608 32.9998 26.5816 32.179 26.5816 31.1664C26.5816 30.1539 25.7608 29.3331 24.7483 29.3331C23.7358 29.3331 22.915 30.1539 22.915 31.1664C22.915 32.179 23.7358 32.9998 24.7483 32.9998Z" fill="#333333"/>
</svg>
