<svg width="44" height="44" viewBox="0 0 44 44" fill="none" xmlns="http://www.w3.org/2000/svg">
<path fill-rule="evenodd" clip-rule="evenodd" d="M27.1686 12.8337C27.1686 15.6871 24.8554 18.0003 22.0019 18.0003C19.1485 18.0003 16.8353 15.6871 16.8353 12.8337C16.8353 9.98019 19.1485 7.66699 22.0019 7.66699C24.8554 7.66699 27.1686 9.98019 27.1686 12.8337ZM31.1686 12.8337C31.1686 17.8963 27.0645 22.0003 22.0019 22.0003C16.9393 22.0003 12.8353 17.8963 12.8353 12.8337C12.8353 7.77105 16.9393 3.66699 22.0019 3.66699C27.0645 3.66699 31.1686 7.77105 31.1686 12.8337ZM16.6667 24C12.4325 24 9 27.4325 9 31.6667V36C9 37.1046 9.89543 38 11 38C12.1046 38 13 37.1046 13 36V31.6667C13 29.6416 14.6416 28 16.6667 28H27.3333C29.3584 28 31 29.6416 31 31.6667V36C31 37.1046 31.8954 38 33 38C34.1046 38 35 37.1046 35 36V31.6667C35 27.4325 31.5675 24 27.3333 24H16.6667Z" fill="#333333"/>
</svg>
