<svg width="44" height="44" viewBox="0 0 44 44" fill="none" xmlns="http://www.w3.org/2000/svg">
<path fill-rule="evenodd" clip-rule="evenodd" d="M20.0578 5.59712C21.2659 4.92596 22.7348 4.92596 23.9429 5.59712L39.4716 14.2242C40.4372 14.7606 40.7851 15.9782 40.2487 16.9438C39.7122 17.9094 38.4946 18.2572 37.5291 17.7208L36.8338 17.3346V34.667C36.8338 36.8762 35.043 38.667 32.8338 38.667H11.1671C8.958 38.667 7.16714 36.8762 7.16714 34.667V17.3344L6.47165 17.7208C5.50608 18.2572 4.28848 17.9094 3.75205 16.9438C3.21562 15.9782 3.56351 14.7606 4.52908 14.2242L20.0578 5.59712ZM22.0004 9.09375L32.8864 15.1415C32.852 15.2884 32.8338 15.4415 32.8338 15.5989V34.667H27.6671V25.667C27.6671 24.5624 26.7717 23.667 25.6671 23.667H18.3338C17.2292 23.667 16.3338 24.5624 16.3338 25.667V34.667H11.1671V15.1122L22.0004 9.09375ZM20.3338 34.667H23.6671V27.667H20.3338V34.667Z" fill="#333333"/>
</svg>
